<svg width="477" height="261" viewBox="0 0 477 261" fill="none" xmlns="http://www.w3.org/2000/svg">
<rect width="477" height="261" fill="#F5F5F5"/>
<rect x="-14" y="-24" width="521" height="328" fill="#D9D9D9"/>
<line x1="124.401" y1="60.299" x2="74.4007" y2="127.299" stroke="black"/>
<line x1="124.404" y1="59.7048" x2="173.404" y2="126.705" stroke="black"/>
<line x1="124" y1="59.5" x2="315" y2="59.5" stroke="black"/>
<line x1="315.296" y1="59.5974" x2="406.296" y2="126.597" stroke="black"/>
<line x1="173" y1="126.5" x2="406" y2="126.5" stroke="black"/>
<line x1="84.4998" y1="117.988" x2="86.4998" y2="198.988" stroke="black"/>
<line x1="173.5" y1="127" x2="173.5" y2="199" stroke="black"/>
<line x1="406.5" y1="127" x2="406.5" y2="199" stroke="black"/>
<line x1="86" y1="198.5" x2="406" y2="198.5" stroke="black"/>
<rect x="264" y="150" width="40" height="40" fill="#D9D9D9"/>
<path d="M193.17 119V92.8182H196.341V104.477H210.301V92.8182H213.472V119H210.301V107.29H196.341V119H193.17ZM241.91 105.909C241.91 108.67 241.411 111.057 240.414 113.068C239.417 115.08 238.049 116.631 236.31 117.722C234.572 118.812 232.586 119.358 230.353 119.358C228.12 119.358 226.134 118.812 224.396 117.722C222.657 116.631 221.289 115.08 220.292 113.068C219.295 111.057 218.796 108.67 218.796 105.909C218.796 103.148 219.295 100.761 220.292 98.75C221.289 96.7386 222.657 95.1875 224.396 94.0966C226.134 93.0057 228.12 92.4602 230.353 92.4602C232.586 92.4602 234.572 93.0057 236.31 94.0966C238.049 95.1875 239.417 96.7386 240.414 98.75C241.411 100.761 241.91 103.148 241.91 105.909ZM238.842 105.909C238.842 103.642 238.462 101.729 237.704 100.169C236.954 98.6094 235.935 97.429 234.648 96.6278C233.37 95.8267 231.938 95.4261 230.353 95.4261C228.768 95.4261 227.332 95.8267 226.045 96.6278C224.766 97.429 223.748 98.6094 222.989 100.169C222.239 101.729 221.864 103.642 221.864 105.909C221.864 108.176 222.239 110.089 222.989 111.649C223.748 113.209 224.766 114.389 226.045 115.19C227.332 115.991 228.768 116.392 230.353 116.392C231.938 116.392 233.37 115.991 234.648 115.19C235.935 114.389 236.954 113.209 237.704 111.649C238.462 110.089 238.842 108.176 238.842 105.909ZM247.241 92.8182H251.025L259.923 114.551H260.229L269.127 92.8182H272.911V119H269.945V99.108H269.69L261.508 119H258.644L250.462 99.108H250.207V119H247.241V92.8182ZM279.268 119V92.8182H295.069V95.6307H282.439V104.477H294.251V107.29H282.439V116.188H295.274V119H279.268Z" fill="black"/>
</svg>
