<svg width="383" height="257" viewBox="0 0 383 257" fill="none" xmlns="http://www.w3.org/2000/svg">
<rect width="383" height="257" fill="#F5F5F5"/>
<g filter="url(#filter0_i_0_1)">
<rect x="-16" y="-35" width="427" height="337" fill="#D9D9D9"/>
</g>
<path d="M100.234 126.155L103.173 168.052L92.472 168.803L85.9572 75.9405L96.6582 75.1898L99.0503 109.288L99.9572 109.224C101.337 105.512 103.585 102.484 106.702 100.139C109.846 97.7616 114.154 96.381 119.625 95.9971C124.371 95.6642 128.594 96.3248 132.295 97.979C135.993 99.6029 138.962 102.296 141.2 106.057C143.467 109.787 144.81 114.644 145.23 120.629L148.335 164.884L137.634 165.635L134.58 122.105C134.192 116.574 132.456 112.397 129.372 109.576C126.316 106.722 122.264 105.472 117.216 105.826C113.71 106.072 110.618 107.033 107.941 108.71C105.294 110.384 103.269 112.698 101.866 115.652C100.494 118.604 99.9495 122.105 100.234 126.155ZM197.214 162.913C190.504 163.384 184.611 162.309 179.536 159.688C174.49 157.034 170.464 153.125 167.458 147.959C164.481 142.761 162.742 136.594 162.242 129.46C161.742 122.326 162.6 115.948 164.818 110.324C167.064 104.668 170.423 100.149 174.894 96.7675C179.394 93.3533 184.787 91.4257 191.075 90.9846C194.702 90.7301 198.327 91.0834 201.948 92.0444C205.57 93.0054 208.927 94.7445 212.02 97.2615C215.11 99.7482 217.673 103.153 219.708 107.476C221.743 111.798 222.988 117.209 223.444 123.709L223.762 128.243L170.076 132.009L169.427 122.759L212.231 119.756C211.955 115.827 210.923 112.375 209.135 109.402C207.377 106.427 205 104.148 202.003 102.566C199.036 100.982 195.618 100.326 191.749 100.597C187.487 100.896 183.873 102.213 180.908 104.548C177.971 106.85 175.789 109.737 174.362 113.209C172.934 116.681 172.356 120.336 172.625 124.175L173.057 130.342C173.426 135.602 174.646 139.997 176.716 143.527C178.815 147.025 181.563 149.612 184.962 151.288C188.358 152.933 192.217 153.604 196.54 153.3C199.351 153.103 201.863 152.532 204.075 151.587C206.315 150.61 208.21 149.262 209.76 147.543C211.308 145.794 212.451 143.678 213.188 141.196L223.73 143.373C222.888 146.956 221.275 150.168 218.892 153.008C216.508 155.818 213.478 158.096 209.803 159.843C206.126 161.559 201.93 162.582 197.214 162.913ZM246.415 64.6836L252.93 157.546L242.229 158.297L235.714 65.4343L246.415 64.6836ZM276.716 62.5579L283.23 155.421L272.529 156.171L266.015 63.3086L276.716 62.5579ZM331.226 153.512C324.938 153.953 319.317 152.843 314.361 150.184C309.435 147.522 305.453 143.594 302.416 138.4C299.408 133.204 297.652 127.008 297.148 119.814C296.639 112.559 297.509 106.134 299.76 100.538C302.04 94.9407 305.433 90.4802 309.939 87.1567C314.475 83.8311 319.887 81.9478 326.174 81.5067C332.462 81.0656 338.069 82.1759 342.994 84.8377C347.95 87.4974 351.933 91.4405 354.942 96.6669C357.982 101.891 359.756 108.131 360.265 115.386C360.77 122.58 359.881 128.961 357.598 134.528C355.346 140.094 351.952 144.539 347.416 147.865C342.91 151.188 337.513 153.07 331.226 153.512ZM330.551 143.899C335.328 143.564 339.171 142.064 342.083 139.399C344.995 136.734 347.051 133.355 348.252 129.26C349.454 125.166 349.891 120.792 349.564 116.137C349.238 111.481 348.193 107.195 346.43 103.279C344.666 99.3624 342.156 96.2729 338.899 94.0105C335.642 91.748 331.625 90.7843 326.849 91.1194C322.073 91.4545 318.23 92.9696 315.32 95.6646C312.411 98.3597 310.357 101.769 309.157 105.894C307.958 110.018 307.522 114.408 307.849 119.063C308.175 123.718 309.219 127.989 310.98 131.875C312.741 135.762 315.249 138.821 318.505 141.053C321.76 143.285 325.775 144.234 330.551 143.899Z" fill="#BC1313"/>
<defs>
<filter id="filter0_i_0_1" x="-16" y="-35" width="427" height="341" filterUnits="userSpaceOnUse" color-interpolation-filters="sRGB">
<feFlood flood-opacity="0" result="BackgroundImageFix"/>
<feBlend mode="normal" in="SourceGraphic" in2="BackgroundImageFix" result="shape"/>
<feColorMatrix in="SourceAlpha" type="matrix" values="0 0 0 0 0 0 0 0 0 0 0 0 0 0 0 0 0 0 127 0" result="hardAlpha"/>
<feOffset dy="4"/>
<feGaussianBlur stdDeviation="2"/>
<feComposite in2="hardAlpha" operator="arithmetic" k2="-1" k3="1"/>
<feColorMatrix type="matrix" values="0 0 0 0 0 0 0 0 0 0 0 0 0 0 0 0 0 0 0.25 0"/>
<feBlend mode="normal" in2="shape" result="effect1_innerShadow_0_1"/>
</filter>
</defs>
</svg>
