<svg width="419" height="220" viewBox="0 0 419 220" fill="none" xmlns="http://www.w3.org/2000/svg">
<rect width="419" height="220" fill="#F5F5F5"/>
<rect x="-34" y="-44" width="521" height="328" fill="#D9D9D9"/>
<line x1="104.401" y1="40.299" x2="54.4007" y2="107.299" stroke="black"/>
<line x1="104.404" y1="39.7048" x2="153.404" y2="106.705" stroke="black"/>
<line x1="104" y1="39.5" x2="295" y2="39.5" stroke="black"/>
<line x1="295.296" y1="39.5974" x2="386.296" y2="106.597" stroke="black"/>
<line x1="153" y1="106.5" x2="386" y2="106.5" stroke="black"/>
<line x1="64.4998" y1="97.9877" x2="66.4998" y2="178.988" stroke="black"/>
<line x1="153.5" y1="107" x2="153.5" y2="179" stroke="black"/>
<line x1="386.5" y1="107" x2="386.5" y2="179" stroke="black"/>
<line x1="66" y1="178.5" x2="386" y2="178.5" stroke="black"/>
<rect x="244" y="130" width="40" height="40" fill="#D9D9D9"/>
<path d="M173.17 99V72.8182H176.341V84.4773H190.301V72.8182H193.472V99H190.301V87.2898H176.341V99H173.17ZM221.91 85.9091C221.91 88.6705 221.411 91.0568 220.414 93.0682C219.417 95.0795 218.049 96.6307 216.31 97.7216C214.572 98.8125 212.586 99.358 210.353 99.358C208.12 99.358 206.134 98.8125 204.396 97.7216C202.657 96.6307 201.289 95.0795 200.292 93.0682C199.295 91.0568 198.796 88.6705 198.796 85.9091C198.796 83.1477 199.295 80.7614 200.292 78.75C201.289 76.7386 202.657 75.1875 204.396 74.0966C206.134 73.0057 208.12 72.4602 210.353 72.4602C212.586 72.4602 214.572 73.0057 216.31 74.0966C218.049 75.1875 219.417 76.7386 220.414 78.75C221.411 80.7614 221.91 83.1477 221.91 85.9091ZM218.842 85.9091C218.842 83.642 218.462 81.7287 217.704 80.169C216.954 78.6094 215.935 77.429 214.648 76.6278C213.37 75.8267 211.938 75.4261 210.353 75.4261C208.768 75.4261 207.332 75.8267 206.045 76.6278C204.766 77.429 203.748 78.6094 202.989 80.169C202.239 81.7287 201.864 83.642 201.864 85.9091C201.864 88.1761 202.239 90.0895 202.989 91.6491C203.748 93.2088 204.766 94.3892 206.045 95.1903C207.332 95.9915 208.768 96.392 210.353 96.392C211.938 96.392 213.37 95.9915 214.648 95.1903C215.935 94.3892 216.954 93.2088 217.704 91.6491C218.462 90.0895 218.842 88.1761 218.842 85.9091ZM227.241 72.8182H231.025L239.923 94.5511H240.229L249.127 72.8182H252.911V99H249.945V79.108H249.69L241.508 99H238.644L230.462 79.108H230.207V99H227.241V72.8182ZM259.268 99V72.8182H275.069V75.6307H262.439V84.4773H274.251V87.2898H262.439V96.1875H275.274V99H259.268Z" fill="black"/>
</svg>
